<?xml version="1.0" encoding="UTF-8"?>
<svg width="24" height="24" viewBox="0 0 24 24" fill="none" xmlns="http://www.w3.org/2000/svg">
  <path d="M17.0435 12.993C17.0435 10.5398 19.0898 8.49347 21.5429 8.49347C21.6478 8.49347 21.7527 8.49347 21.8576 8.50846V3.96774C21.8576 2.88439 20.9742 2 19.8908 2H4.10922C3.02587 2 2.14246 2.88341 2.14246 3.96774V20.0323C2.14246 21.1156 3.02587 22 4.10922 22H19.8908C20.9742 22 21.8576 21.1166 21.8576 20.0323V17.4925C21.7527 17.5075 21.6478 17.5075 21.5429 17.5075C19.0898 17.5075 17.0435 15.4612 17.0435 12.993Z" fill="white"/>
  <path d="M12 7.5C13.1046 7.5 14 6.60457 14 5.5C14 4.39543 13.1046 3.5 12 3.5C10.8954 3.5 10 4.39543 10 5.5C10 6.60457 10.8954 7.5 12 7.5Z" fill="#67A8BD"/>
  <path d="M12 20.5C13.1046 20.5 14 19.6046 14 18.5C14 17.3954 13.1046 16.5 12 16.5C10.8954 16.5 10 17.3954 10 18.5C10 19.6046 10.8954 20.5 12 20.5Z" fill="#67A8BD"/>
</svg> 